<svg height="17.215555mm" viewBox="0 0 222.0004 60.999998" width="62.653446mm" xmlns="http://www.w3.org/2000/svg"><g transform="translate(-664.83823 -596.61255)"><g fill="#fff"><path d="m774.83823 652.61255v-39h19.5004c5.4996 0 10.4996 5 10.5 10.5s0 28.5 0 28.5h-7s-.00039-18-.0004-27c0-2.71875-2-5-5-5-3.66681 0-11 0-11 0v37z"/><path d="m817.83863 652.61255v-39h7v39z"/><path d="m817.83863 604.61255h7v-8l-7 5z"/><path d="m844.83863 652.61255h-7v-39h38.5c6 0 10.49999 4.5 10.5 10.5v28.5l-7 5-.0004-32c-.00004-3-2-5-5-5h-8.9996v32h-7v-32h-14z"/></g><g><path d="m709.69141 596.61258s-3.41031 2.69499-6.88691 5.37174c-3.57641-.11362-10.59106.68718-14.39187 2.06946-3.50133-2.21819-6.57787-4.66728-6.57787-4.66728s-2.62896 4.52282-4.28224 7.17702c-2.45187 1.30403-4.91362 2.77074-7.10764 4.7113-2.55188-1.01333-5.5101-2.24876-5.60665-2.28959 3.37945 6.81645 5.65131 13.64192 11.83134 17.74436 9.83897-15.53906 55.55981-14.10685 65.60219-.0881 6.49004-3.38511 9.01412-10.66815 11.56647-17.39212-.27986.0922-3.75271 1.25487-6.00396 2.11349-1.34414-1.46336-4.51234-3.71327-6.31301-4.79936-1.70802-3.12771-4.19395-7.35313-4.19395-7.35313s-2.94437 2.1899-6.35714 4.5792c-4.61059-.85108-10.1872-1.88519-14.87749-1.62916-3.19286-2.62436-6.40127-5.54786-6.40127-5.54786z" fill="#f3d400"/><path d="m668.33241 623.47127s4.78987 11.5978 8.1165 19.65678c14.09625 18.59727 50.09234 19.89014 65.7848.36006 3.71345-8.36876 8.72334-20.1298 8.72334-20.1298-4.0259 5.96409-10.5778 10.08114-14.61301 12.29885-2.86735 1.57082-9.48338 2.52031-9.48338 2.52031l-17.36961-9.00108-17.46941 8.82104s-6.52806-1.04882-9.4834-2.4303c-5.96472-3.18408-9.9764-6.94592-14.20583-12.09586z" fill="#ffe953"/></g></g></svg>